# AST/ASF file generated using VICON BodyLanguage
# -----------------------------------------------
:version 1.10
:name VICON
:units
  mass 1.0
  length 0.45
  angle deg
:documentation
   .ast/.asf automatically generated from VICON data using
   VICON BodyBuilder and BodyLanguage model FoxedUp or BRILLIANT.MOD
:root
   order TX TY TZ RX RY RZ
   axis XYZ
   position 0 0 0  
   orientation 0 0 0 
:bonedata
  begin
     id 1 
     name lhipjoint
     direction 0.521452 -0.77106 0.36545 
     length 2.0933 
     axis 0 0 0  XYZ
  end
  begin
     id 2 
     name lfemur
     direction 0.34202 -0.939693 0  
     length 6.83441  
     axis 0 0 20  XYZ
    dof rx ry rz
    limits (-160.0 20.0)
           (-70.0 70.0)
           (-60.0 70.0)
  end
  begin
     id 3 
     name ltibia
     direction 0.34202 -0.939693 0   
     length 7.28749   
     axis 0 0 20   XYZ
    dof rx
    limits (-10.0 170.0)
  end
  begin
     id 4 
     name lfoot
     direction 0.100608 -0.276418 0.955757   
     length 1.52195   
     axis -90 7.62852e-016 20   XYZ
    dof rx rz
    limits (-45.0 90.0)
           (-70.0 20.0)
  end
  begin
     id 5 
     name ltoes
     direction 1.53558e-011 -4.21907e-011 1   
     length 0.770459   
     axis -90 7.62852e-016 20   XYZ
    dof rx
    limits (-90.0 20.0)
  end
  begin
     id 6 
     name rhipjoint
     direction -0.488071 -0.788702 0.373812   
     length 2.04648  
     axis 0 0 0  XYZ 
  end
  begin
     id 7 
     name rfemur
     direction -0.34202 -0.939693 0   
     length 6.92583   
     axis 0 0 -20   XYZ
    dof rx ry rz
    limits (-160.0 20.0)
           (-70.0 70.0)
           (-70.0 60.0)
  end
  begin
     id 8 
     name rtibia
     direction -0.34202 -0.939693 0   
     length 7.41043   
     axis 0 0 -20   XYZ
    dof rx
    limits (-10.0 170.0)
 end
 begin
     id 9 
     name rfoot
     direction -0.0784433 -0.215521 0.973343   
     length 1.67708  
     axis -90 -7.62852e-016 -20   XYZ
    dof rx rz
    limits (-45.0 90.0)
           (-20.0 70.0)
  end
  begin
     id 10 
     name rtoes
     direction -1.53551e-011 -4.21842e-011 1   
     length 0.849787   
     axis -90 -7.62852e-016 -20   XYZ
    dof rx
    limits (-90.0 20.0)
  end
  begin
     id 11 
     name lowerback
     direction -0.0122332 0.997575 -0.0685192   
     length 1.98724   
     axis 0 0 0   XYZ
    dof rx ry rz
    limits (-20.0 45.0)
           (-30.0 30.0)
           (-30.0 30.0)
  end
  begin
     id 12 
     name upperback
     direction 0.0182347 0.999724 -0.0148421   
     length 1.99029   
     axis 0 0 0   XYZ
    dof rx ry rz
    limits (-20.0 45.0)
           (-30.0 30.0)
           (-30.0 30.0)
  end
  begin
     id 13 
     name thorax
     direction 0.0242908 0.99956 0.0170184   
     length 1.99573   
     axis 0 0 0   XYZ
    dof rx ry rz
    limits (-20.0 45.0)
           (-30.0 30.0)
           (-30.0 30.0)
  end
  begin
     id 14 
     name lowerneck
     direction 0.0654488 0.985533 0.156338   
     length 1.4285   
     axis 0 0 0   XYZ
    dof rx ry rz
    limits (-20.0 45.0)
           (-30.0 30.0)
           (-30.0 30.0)
  end
  begin
     id 15 
     name upperneck
     direction -0.02953 0.998556 -0.0448842   
     length 1.44709   
     axis 0 0 0   XYZ
    dof rx ry rz
    limits (-20.0 45.0)
           (-30.0 30.0)
           (-30.0 30.0)
  end
  begin
     id 16
     name head
     direction -0.0155588 0.999386 -0.0314063  
     length 1.44689  
     axis 0 0 0   XYZ
    dof rx ry rz
    limits (-20.0 45.0)
           (-30.0 30.0)
           (-30.0 30.0)
  end
  begin
     id 17 
     name lclavicle
     direction 0.968229 0.236071 -0.0824755  
     length 3.60593  
     axis 0 0 0   XYZ
    dof ry rz
    limits (-20.0 10.0)
           (0.0 20.0)
  end
  begin
     id 18 
     name lhumerus
     direction 1 -4.48968e-011 7.8138e-029   
     length 5.06035   
     axis 180 -30 -90   XYZ
    dof rx ry rz
    limits (-60.0 90.0)
           (-90.0 90.0)
           (-90.0 90.0)
  end
  begin
     id 19
     name lradius
     direction 1 -4.48967e-011 9.02887e-028   
     length 3.1478   
     axis 180 -30 -90   XYZ
    dof rx
    limits (-10.0 170.0)
  end
  begin
     id 20
     name lwrist
     direction 1 -4.48961e-011 7.20928e-028   
     length 1.5739   
     axis -5.52449e-016 90 90   XYZ
    dof ry
    limits (-180.0 0.0)
 end
  begin
     id 21 
     name lhand
     direction 1 -4.48972e-011 1.44186e-027   
     length 0.606747   
     axis -9.20027e-016 90 90   XYZ
    dof rx rz
    limits (-90.0 90.0)
           (-45.0 45.0)
  end
  begin
     id 22 
     name lfingers
     direction 1 -4.48943e-011 2.88371e-027   
     length 0.489175   
     axis -1.84005e-015 90 90   XYZ
    dof rx
    limits (0.0 90.0)
  end
  begin
     id 23
     name lthumb
     direction 0.707107 -6.34917e-011 0.707107   
     length 0.70236   
     axis -90 45 2.85299e-015   XYZ
    dof rx rz
    limits (-45.0 45.0)
           (-45.0 45.0)
  end
  begin
     id 24 
     name rclavicle
     direction -0.978165 0.207816 0.0022268   
     length 3.35425  
     axis 0 0 0   XYZ 
    dof ry rz
    limits (-10.0 20.0)
           (-20.0 0.0)
  end
  begin
     id 25 
     name rhumerus
     direction -1 -4.48964e-011 -4.02159e-027  
     length 5.12273   
     axis 180 30 90   XYZ
    dof rx ry rz
    limits (-90.0 60.0)
           (-90.0 90.0)
           (-90.0 90.0)
  end
  begin
     id 26 
     name rradius
     direction -1 -4.48966e-011 1.62746e-027   
     length 3.422   
     axis 180 30 90   XYZ
    dof rx
    limits (-10.0 170.0)
  end
  begin
     id 27 
     name rwrist
     direction -1 -4.4896e-011 7.20928e-028   
     length 1.711   
     axis -5.52449e-016 -90 -90   XYZ
    dof ry
    limits (-180.0 0.0)
  end
  begin
     id 28
     name rhand
     direction -1 -4.48979e-011 1.44186e-027   
     length 0.704599   
     axis -9.20027e-016 -90 -90   XYZ
    dof rx rz
    limits (-90.0 90.0)
           (-45.0 45.0)
  end
  begin
     id 29
     name rfingers
     direction -1 -4.48962e-011 2.88371e-027   
     length 0.568066   
     axis -1.84005e-015 -90 -90   XYZ
    dof rx
    limits (0.0 90.0)
  end
  begin
     id 30
     name rthumb
     direction -0.707107 -6.34949e-011 0.707107   
     length 0.815633   
     axis -90 -45 -2.85299e-015   XYZ
    dof rx rz
    limits (-45.0 45.0)
           (-45.0 45.0)
  end
:hierarchy
  begin
    root lhipjoint rhipjoint lowerback
    lhipjoint lfemur
    lfemur ltibia
    ltibia lfoot
    lfoot ltoes
    rhipjoint rfemur
    rfemur rtibia
    rtibia rfoot
    rfoot rtoes
    lowerback upperback
    upperback thorax
    thorax lowerneck lclavicle rclavicle
    lowerneck upperneck
    upperneck head
    lclavicle lhumerus
    lhumerus lradius
    lradius lwrist
    lwrist lhand lthumb
    lhand lfingers
    rclavicle rhumerus
    rhumerus rradius
    rradius rwrist
    rwrist rhand rthumb
    rhand rfingers
  end

#!OML:ASF E:\id_vita\Project 1\Capture day 1\Session 1\Male1.ASF
:FULLY-SPECIFIED
:DEGREES
227
root 3.16355 16.0956 -0.0421974 485.081 -83.5411 -485.11
lowerback -1.19148 -3.38513 1.64116
upperback 1.28868 -4.57681 0.893317
thorax 1.93294 -2.27364 -0.128791
lowerneck 0.559436 -8.53611 -4.34522
upperneck -10.7778 -11.8905 0.252203
head -3.29669 -5.84431 1.14961
rclavicle -1.8077e-014 1.98785e-015
rhumerus -28.7797 -1.45257 -84.8134
rradius 40.6269
rwrist -3.07173
rhand -21.1393 33.3911
rfingers 7.12502
rthumb 5.23986 3.4759
lclavicle -1.8077e-014 1.98785e-015
lhumerus -39.3646 41.9745 60.2579
lradius 7.76725
lwrist -33.0406
lhand -11.1815 48.3465
lfingers 7.12502
lthumb 14.8457 77.7946
rfemur -0.330108 2.30996 30.0582
rtibia 22.6802
rfoot -17.725 -9.11452
rtoes -5.43638
lfemur -25.5466 3.39414 -14.3905
ltibia 50.1595
lfoot -13.388 -13.7279
ltoes 46.4037
228
root 3.01911 16.1036 -0.0399513 486.481 -83.579 -486.279
lowerback -1.46465 -3.34081 1.65555
upperback 1.28413 -4.522 0.821392
thorax 2.07518 -2.24356 -0.226303
lowerneck 0.218062 -8.62329 -4.43121
upperneck -10.4951 -11.9769 0.277487
head -3.12671 -5.89295 1.14031
rclavicle 4.72859e-014 -1.90833e-014
rhumerus -28.6086 -1.06433 -84.9441
rradius 41.5348
rwrist -3.23389
rhand -21.1409 33.6197
rfingers 7.12502
rthumb 5.23834 3.70447
lclavicle 4.72859e-014 -1.90833e-014
lhumerus -39.5926 41.6834 60.1718
lradius 7.16896
lwrist -32.7975
lhand -15.0505 47.5185
lfingers 7.12502
lthumb 11.1161 77.2041
rfemur 0.350467 2.22883 29.8435
rtibia 21.8892
rfoot -18.0393 -8.71833
rtoes -4.44831
lfemur -26.1431 3.18211 -14.5557
ltibia 47.743
lfoot -12.9659 -14.3132
ltoes 46.6058
229
root 2.88079 16.1123 -0.0400938 486.995 -83.5956 -486.551
lowerback -1.70341 -3.29291 1.6913
upperback 1.29863 -4.46275 0.751542
thorax 2.21657 -2.21094 -0.331483
lowerneck -0.28533 -8.71965 -4.25512
upperneck -10.0887 -12.0739 0.0936139
head -2.91586 -5.95183 1.01112
rclavicle 2.24627e-014 -9.54166e-015
rhumerus -28.3156 -0.848557 -85.0849
rradius 42.3722
rwrist -3.35258
rhand -21.2522 33.8479
rfingers 7.12502
rthumb 5.13086 3.93002
lclavicle 2.24627e-014 -9.54166e-015
lhumerus -39.8392 41.2909 60.088
lradius 6.72753
lwrist -32.258
lhand -11.7574 47.2719
lfingers 7.12502
lthumb 14.2908 76.7601
rfemur 1.13738 2.20051 29.7625
rtibia 20.8494
rfoot -18.0882 -8.42932
rtoes -3.87297
lfemur -26.7784 2.91541 -14.606
ltibia 45.3058
lfoot -12.5908 -14.5454
ltoes 46.5926
230
root 2.74909 16.1185 -0.0457939 487.075 -83.4744 -486.44
lowerback -1.74911 -3.21719 1.70422
upperback 1.21886 -4.36259 0.80095
thorax 2.1647 -2.16186 -0.284877
lowerneck -0.0436685 -8.82377 -4.42757
upperneck -10.3284 -12.2351 0.197975
head -3.02119 -6.02456 1.09646
rclavicle 3.4514e-014 -5.96354e-015
rhumerus -28.1532 -0.706805 -85.0986
rradius 43.1188
rwrist -3.40204
rhand -21.4257 34.0073
rfingers 7.12502
rthumb 4.96329 4.08543
lclavicle 3.4514e-014 -5.96354e-015
lhumerus -40.2813 40.8229 59.9787
lradius 6.54062
lwrist -31.7973
lhand -11.7809 49.1349
lfingers 7.12502
lthumb 14.2682 78.6247
rfemur 2.05559 2.40267 29.9259
rtibia 19.6477
rfoot -17.8552 -8.43038
rtoes -3.7419
lfemur -27.3602 2.60732 -14.4415
ltibia 42.8815
lfoot -12.419 -14.3617
ltoes 46.3262
231
root 2.60906 16.1232 -0.0563879 486.254 -83.0104 -485.628
lowerback -1.57442 -3.14041 1.95251
upperback 1.14453 -4.26663 0.995107
thorax 1.98879 -2.11488 -0.20753
lowerneck 0.0997672 -8.80811 -4.63593
upperneck -10.3167 -12.1922 0.500346
head -3.01082 -6.00368 1.22953
rclavicle -1.01393e-013 2.0276e-014
rhumerus -28.147 -0.292752 -85.094
rradius 43.9194
rwrist -3.61047
rhand -21.5067 33.835
rfingers 7.12502
rthumb 4.88509 3.91129
lclavicle -1.01393e-013 2.0276e-014
lhumerus -40.9184 40.4632 59.7839
lradius 6.33945
lwrist -31.1627
lhand -11.4032 49.9384
lfingers 7.12502
lthumb 14.6321 79.4022
rfemur 3.31804 2.84191 30.5193
rtibia 18.2674
rfoot -17.3919 -8.75409
rtoes -4.42957
lfemur -27.6725 2.28311 -13.854
ltibia 40.5509
lfoot -12.1017 -13.8103
ltoes 45.6463
